<svg width="25" height="25" viewBox="0 0 25 25" fill="none" xmlns="http://www.w3.org/2000/svg">
<path d="M21.0938 13.2812C21.0908 11.6063 20.4904 9.98743 19.4006 8.71558C18.3108 7.44372 16.8031 6.60235 15.1484 6.34271L16.3427 4.35748C16.3957 4.26962 16.4309 4.17216 16.4462 4.07069C16.4615 3.96922 16.4566 3.86572 16.4319 3.76613C16.4072 3.66653 16.3631 3.57279 16.302 3.49027C16.241 3.40774 16.1644 3.33806 16.0764 3.28521L13.3977 1.67427C13.3099 1.62134 13.2124 1.58624 13.111 1.57099C13.0095 1.55574 12.906 1.56064 12.8065 1.5854C12.7069 1.61016 12.6132 1.65431 12.5308 1.71531C12.4483 1.77631 12.3786 1.85298 12.3258 1.94091L7.89609 9.30482C7.78956 9.48245 7.75781 9.69506 7.80779 9.89606C7.85777 10.0971 7.98542 10.27 8.16273 10.3771L10.8407 11.988C11.0183 12.0946 11.231 12.1264 11.432 12.0765C11.633 12.0265 11.806 11.8988 11.913 11.7214L14.2586 7.8224C15.1902 7.85361 16.0983 8.12255 16.8966 8.60365C17.6949 9.08476 18.3569 9.76204 18.8197 10.5711C19.2825 11.3802 19.5306 12.2942 19.5406 13.2262C19.5505 14.1583 19.322 15.0773 18.8766 15.8961C18.4312 16.7149 17.7838 17.4062 16.996 17.9043C16.2081 18.4023 15.306 18.6906 14.3753 18.7417C13.4446 18.7929 12.5163 18.6051 11.6787 18.1963C10.841 17.7875 10.1218 17.1713 9.58945 16.4062H12.5C12.7072 16.4062 12.9059 16.3239 13.0524 16.1774C13.1989 16.0309 13.2812 15.8322 13.2812 15.625C13.2812 15.4178 13.1989 15.2191 13.0524 15.0725C12.9059 14.926 12.7072 14.8437 12.5 14.8437H4.6875C4.4803 14.8437 4.28159 14.926 4.13507 15.0725C3.98856 15.2191 3.90625 15.4178 3.90625 15.625C3.90625 15.8322 3.98856 16.0309 4.13507 16.1774C4.28159 16.3239 4.4803 16.4062 4.6875 16.4062H7.7832C8.30249 17.4579 9.07846 18.3618 10.0394 19.0343C11.0004 19.7069 12.1153 20.1264 13.2812 20.2541V21.875H10.9375C10.7303 21.875 10.5316 21.9573 10.3851 22.1038C10.2386 22.2503 10.1562 22.449 10.1562 22.6562C10.1562 22.8634 10.2386 23.0621 10.3851 23.2087C10.5316 23.3552 10.7303 23.4375 10.9375 23.4375H17.1875C17.3947 23.4375 17.5934 23.3552 17.7399 23.2087C17.8864 23.0621 17.9688 22.8634 17.9688 22.6562C17.9688 22.449 17.8864 22.2503 17.7399 22.1038C17.5934 21.9573 17.3947 21.875 17.1875 21.875H14.8438V20.2664C16.5615 20.0726 18.1478 19.2536 19.3004 17.9653C20.4531 16.6771 21.0914 15.0098 21.0938 13.2812ZM10.9766 10.2462L9.63758 9.44099L13.262 3.41607L14.6016 4.2213L10.9766 10.2462Z" fill="#212123"/>
</svg>
