<svg width="25" height="25" viewBox="0 0 25 25" fill="none" xmlns="http://www.w3.org/2000/svg">
<path d="M23.4375 10.9375H22.0267C22.3568 10.2334 22.5377 9.46863 22.5582 8.69127C22.5787 7.9139 22.4384 7.14068 22.1459 6.42015C21.797 5.51382 21.2001 4.72394 20.4236 4.14077C19.647 3.5576 18.722 3.20467 17.7544 3.12233C16.7764 3.04279 15.7933 3.19043 14.8818 3.55372C13.9703 3.91701 13.1551 4.4861 12.5 5.21655C11.8449 4.48567 11.0295 3.91629 10.1177 3.55298C9.2059 3.18967 8.22239 3.04227 7.24414 3.12233C6.27325 3.20567 5.34539 3.5605 4.56664 4.14627C3.7879 4.73205 3.18968 5.52512 2.84039 6.43483C2.48959 7.29425 2.3589 8.22764 2.46019 9.15035C2.56147 10.0731 2.89152 10.9559 3.42039 11.7187H1.5625C1.3553 11.7187 1.15659 11.8011 1.01007 11.9476C0.86356 12.0941 0.78125 12.2928 0.78125 12.5C0.78125 12.7072 0.86356 12.9059 1.01007 13.0524C1.15659 13.1989 1.3553 13.2812 1.5625 13.2812H4.70844L11.8584 21.6297C11.9315 21.7151 12.0221 21.7837 12.1241 21.8309C12.2262 21.8781 12.3372 21.9027 12.4496 21.9031H12.452C12.5639 21.9031 12.6746 21.879 12.7765 21.8325C12.8784 21.7859 12.9691 21.7181 13.0424 21.6334L20.9577 12.5H23.4375C23.6447 12.5 23.8434 12.4177 23.9899 12.2712C24.1364 12.1247 24.2188 11.9259 24.2188 11.7187C24.2188 11.5115 24.1364 11.3128 23.9899 11.1663C23.8434 11.0198 23.6447 10.9375 23.4375 10.9375ZM4.96367 11.177C4.47788 10.6141 4.15765 9.92755 4.03856 9.19361C3.91947 8.45966 4.00618 7.70707 4.28906 7.01944C4.53333 6.37841 4.95296 5.819 5.50002 5.4051C6.04708 4.9912 6.69951 4.7395 7.38281 4.67874C7.52398 4.66616 7.66742 4.65968 7.8125 4.65968C8.62242 4.65549 9.41933 4.86335 10.124 5.2626C10.8287 5.66185 11.4166 6.23858 11.8294 6.93546C11.904 7.04451 12.004 7.13373 12.1209 7.19538C12.2377 7.25702 12.3679 7.28924 12.5 7.28924C12.6321 7.28924 12.7623 7.25702 12.8791 7.19538C12.996 7.13373 13.096 7.04451 13.1706 6.93546C13.5834 6.23858 14.1713 5.66185 14.876 5.2626C15.5807 4.86335 16.3776 4.65549 17.1875 4.65968C17.3324 4.65968 17.4759 4.66616 17.6155 4.67874C18.2957 4.73842 18.9453 4.98819 19.4902 5.39953C20.0351 5.81087 20.4533 6.36718 20.697 7.00491C20.9566 7.64774 21.0482 8.3461 20.9632 9.03414C20.8781 9.72218 20.6193 10.3772 20.2109 10.9375H15.625C15.5037 10.9374 15.3841 10.9656 15.2756 11.0199C15.1671 11.0741 15.0727 11.1529 15 11.25L13.4146 13.3637L11.6362 9.80686C11.575 9.68447 11.4828 9.58029 11.3687 9.50478C11.2547 9.42927 11.1227 9.38507 10.9862 9.37663C10.8493 9.36571 10.7119 9.39216 10.5889 9.45315C10.4658 9.51414 10.3616 9.60739 10.2873 9.72296L8.95687 11.7187H5.42766L4.96367 11.177ZM12.4559 19.9245L6.76562 13.2812H9.375C9.50361 13.2812 9.63023 13.2495 9.74362 13.1888C9.85701 13.1281 9.95366 13.0404 10.025 12.9333L10.8406 11.7096L12.5828 15.1932C12.6425 15.3123 12.7315 15.4141 12.8415 15.4892C12.9515 15.5642 13.0789 15.6099 13.2115 15.6219C13.2349 15.6238 13.2587 15.625 13.2818 15.625C13.4031 15.6251 13.5227 15.5968 13.6312 15.5426C13.7397 15.4883 13.8341 15.4096 13.9068 15.3125L16.0156 12.5H18.8901L12.4559 19.9245Z" fill="#212123"/>
</svg>
